# xmcd CD database file
#
# Track frame offsets:
#	150
#	12379
#	24959
#	35883
#	44440
#	55334
#	67202
#	77018
#	84656
#	91329
#	101325
#	110804
#	121942
#	132583
#	144587
#	153869
#	162745
#	173827
#	183762
#	193634
#
# Disc length: 2697 seconds
#
# Revision: 0
# Processed by: cddbd v1.5.2PL0 Copyright (c) Steve Scherf et al.
# Submitted via: CDex 1.51
#
DISCID=170a8714
DTITLE=Johnny Cash - I Walk The Line
DYEAR=2006
DGENRE=Country
TTITLE0=I Walk The Line
TTITLE1=Folsom Prison Blues
TTITLE2=Cry! Cry! Cry!
TTITLE3=I Forgot To Remember To Forget
TTITLE4=I Love You Because
TTITLE5=Home Of The Blues
TTITLE6=Ballad Of A Teenage Queen
TTITLE7=Hey Good Lookin'
TTITLE8=Leave That Junk Alone
TTITLE9=Get Rhythm
TTITLE10=It's Just About Time
TTITLE11=Mean-Eyed Cat
TTITLE12=I Just Thought You'D Like To Know
TTITLE13=Give My Love To Rose
TTITLE14=Luther Played The Boogie
TTITLE15=Life Goes On
TTITLE16=Don't Make Me Go
TTITLE17=Goodbye Little Darlin'
TTITLE18=I Could Never Be Ashamed Of You
TTITLE19=Katy Too
EXTD=YEAR: 2006
EXTT0=
EXTT1=
EXTT2=
EXTT3=
EXTT4=
EXTT5=
EXTT6=
EXTT7=
EXTT8=
EXTT9=
EXTT10=
EXTT11=
EXTT12=
EXTT13=
EXTT14=
EXTT15=
EXTT16=
EXTT17=
EXTT18=
EXTT19=
PLAYORDER=
